<?xml version="1.0" encoding="utf-8"?>
<!-- Generator: Adobe Illustrator 26.0.1, SVG Export Plug-In . SVG Version: 6.00 Build 0)  -->
<svg version="1.1" id="Layer_1" xmlns="http://www.w3.org/2000/svg" xmlns:xlink="http://www.w3.org/1999/xlink" x="0px" y="0px"
	 viewBox="0 0 440 440" style="enable-background:new 0 0 440 440;" xml:space="preserve">
<path d="M220,0C98.5,0,0,98.5,0,220s98.5,220,220,220s220-98.5,220-220S341.5,0,220,0z M180,80h170l-10.2,8.8c0,0.4,0.2,0.8,0.2,1.2
	v52.8c6,3.4,10,9.8,10,17.2v60c0,11-9,20-20,20s-20-9-20-20v-60c0-7.4,4-13.8,10-17.2v-37.1l-35.9,30.8c3.5,7,5.9,15.5,5.9,25.9
	c0,27.2-15.2,40.7-30.3,52.7c-4.7,4.8-10.2,10-10.2,18.1c0,8,5.5,12.5,9.5,15.7l12.9,10.3c15.9,13.6,30.3,26.1,30.3,51.4
	c0,34.5-32.9,69.4-94.9,69.4c-52.3,0-77.5-25.3-77.5-52.5c0-13.2,6.5-31.9,27.8-44.8c22.3-13.9,52.6-15.8,68.9-16.9
	c-5.1-6.6-10.9-13.5-10.9-25c0-6.1,1.9-9.8,3.7-14.3c-4,0.4-8,0.8-11.6,0.8c-38,0-59.7-28.8-59.9-57.3H80L180,80z M212.7,112.4
	c-9.3,0-19.4,4.7-25.2,12.2c-6.1,7.6-8,17.5-8,27c0,24.6,14.2,65.4,45.1,65.4c9.1,0,18.8-4.4,24.6-10.3c8.2-8.5,9-20.2,9-26.7
	C258.2,153.5,242.7,112.4,212.7,112.4z M230.4,276.1c-3.2,0-22.7,0.7-37.8,5.9c-8,3-31,11.7-31,37.8s24.8,44.8,63.4,44.8
	c34.7,0,53-17,53-39.7c0-18.7-11.8-28.6-39.2-48.4C235.9,276.1,234.1,276.1,230.4,276.1z"/>
</svg>
