<?xml version="1.0" encoding="utf-8"?>
<!-- Generator: Adobe Illustrator 26.0.1, SVG Export Plug-In . SVG Version: 6.00 Build 0)  -->
<svg version="1.1" id="Layer_1" xmlns="http://www.w3.org/2000/svg" xmlns:xlink="http://www.w3.org/1999/xlink" x="0px" y="0px"
	 viewBox="0 0 16 16" style="enable-background:new 0 0 16 16;" xml:space="preserve">
<path d="M1,2c0-0.6,0.5-1,1-1H14c0.6,0,1,0.4,1,1v12c0,0.6-0.5,1-1,1H2c-0.6,0-1-0.4-1-1V2z M5.3,12.7V6.4H3.2v6.3H5.3z M4.3,5.5
	C5,5.5,5.5,5,5.5,4.4c0-0.6-0.5-1.1-1.2-1.1S3.1,3.8,3.1,4.4C3.1,5,3.6,5.5,4.3,5.5L4.3,5.5z M8.6,12.7V9.2c0-0.2,0-0.4,0.1-0.5
	c0.2-0.4,0.5-0.8,1.1-0.8c0.8,0,1.1,0.6,1.1,1.4v3.4h2.1V9.1c0-1.9-1-2.8-2.4-2.8c-1.1,0-1.6,0.6-1.9,1v0h0c0,0,0,0,0,0V6.4H6.5
	c0,0.6,0,6.3,0,6.3H8.6z"/>
</svg>
