<?xml version="1.0" encoding="utf-8"?>
<!-- Generator: Adobe Illustrator 26.0.1, SVG Export Plug-In . SVG Version: 6.00 Build 0)  -->
<svg version="1.1" id="Layer_1" xmlns:xodm="http://www.corel.com/coreldraw/odm/2003"
	 xmlns="http://www.w3.org/2000/svg" xmlns:xlink="http://www.w3.org/1999/xlink" x="0px" y="0px" viewBox="0 0 32 32"
	 style="enable-background:new 0 0 32 32;" xml:space="preserve">
<g>
	<path d="M13.6,11.9c-0.5-0.2-0.6-0.2-1.9-0.2s-1.3,0-1.4,2.3c0,1.3,0,2.4,0,2.4c0.3,0.3,2.5,0.2,3.1-0.1
		C15.4,15.5,15.5,12.7,13.6,11.9z"/>
	<path d="M25.7,1H6.3C3.4,1,1,3.4,1,6.3v19.4C1,28.6,3.4,31,6.3,31h19.4c2.9,0,5.3-2.4,5.3-5.3V6.3C31,3.4,28.6,1,25.7,1z
		 M19.2,22.7c-0.2,0.4-1,0.5-2,0.3c-1.4-0.3-2.3-1.1-4.4-4.3c-0.7-1.1-0.7-1.1-1.4-1.1c-1-0.1-0.9-0.2-0.9,2c0,2.6,0,2.5,1.5,2.8
		c0.4,0.1,0.4,0.1,0.4,0.3c0,0.3,0,0.3-2.6,0.3c-2.5,0-2.6,0-2.7-0.1c-0.1-0.3,0.1-0.4,0.6-0.5c0.6-0.1,0.9-0.4,1-0.8
		c0-0.2,0.1-2.3,0-4.8c0-5.2,0-4.9-0.9-5.1C7.2,11.4,7,11.3,7.1,11c0.1-0.2,0.2-0.2,2.9-0.2c4.1-0.1,4.8,0.1,5.9,1
		c1.1,1,1.3,2.6,0.4,3.8c-0.4,0.6-1.2,1.2-1.8,1.4c-0.3,0.1-0.5,0.2-0.5,0.3c0,0.1,0.9,1.4,1.5,2.1c1.5,1.9,2.3,2.6,3.2,2.8
		C19.2,22.3,19.4,22.5,19.2,22.7z M23.5,10.9c-0.1,1.3-0.5,2-1.3,2.4c-0.4,0.2-1.2,0.3-1.8,0.2c-1.5-0.3-2.1-1.2-2-3.7
		c0-1.4,0.1-1.7,0.7-2.3c0.9-1,3.2-0.9,4,0.2c0.4,0.4,0.3,0.6-0.2,0.7c-0.4,0.1-0.4,0.1-0.8-0.2c-0.9-0.8-2.3-0.5-2.6,0.5
		c-0.1,0.5-0.1,2.5,0,2.9c0.4,1.3,2.5,1.3,2.8,0c0.2-0.8,0.2-0.9-0.8-0.9c-0.5,0-0.5,0-0.5-0.4c0-0.4,0-0.4,1.1-0.4
		C23.6,9.9,23.5,9.8,23.5,10.9z"/>
</g>
</svg>
