<?xml version="1.0" encoding="utf-8"?>
<!-- Generator: Adobe Illustrator 26.0.1, SVG Export Plug-In . SVG Version: 6.00 Build 0)  -->
<svg version="1.1" id="Layer_1" xmlns="http://www.w3.org/2000/svg" xmlns:xlink="http://www.w3.org/1999/xlink" x="0px" y="0px"
	 viewBox="0 0 16 16" style="enable-background:new 0 0 16 16;" xml:space="preserve">
<style type="text/css">
	.st0{fill-rule:evenodd;clip-rule:evenodd;}
</style>
<path class="st0" d="M2.6,1.4c0.6-0.6,1.6-0.6,2.2,0c0,0,0.1,0.1,0.1,0.1l1.6,2C6.8,4,6.9,4.5,6.8,4.9L6.3,6.8
	C6.3,7,6.3,7.2,6.5,7.4l2.1,2.1C8.8,9.7,9,9.8,9.2,9.7l1.9-0.5c0.5-0.1,0.9,0,1.3,0.3l2,1.6c0.7,0.6,0.8,1.6,0.1,2.3l-0.9,0.9
	c-0.6,0.6-1.6,0.9-2.5,0.6C8.8,14.1,6.7,12.7,5,11C3.3,9.3,1.9,7.2,1.1,4.9C0.8,4,1.1,3,1.7,2.4L2.6,1.4z"/>
</svg>
